<?xml version="1.0" encoding="UTF-8"?> <svg xmlns="http://www.w3.org/2000/svg" width="102" height="45" viewBox="0 0 102 45" fill="none"> <path d="M14.8447 3.07822V3.30146L15.0488 3.40067L15.2528 3.30146V3.07822L15.0488 2.979L14.8447 3.07822ZM18.033 16.2492V16.7949L18.5177 17.0677L19.0023 16.7949V16.2492L18.5177 15.9763L18.033 16.2492ZM14.4111 7.81579V7.44373L14.7427 7.2453L15.0743 7.44373V7.81579L14.7427 8.01423L14.4111 7.81579ZM26.3991 30.0898V31.0076L27.2153 31.4541L28.0315 31.0076V30.0898L27.2153 29.6434L26.3991 30.0898ZM24.2311 25.3771V24.5585L24.9453 24.1617L25.6594 24.5585V25.3771L24.9453 25.7739L24.2311 25.3771ZM20.9663 19.9698V20.6643L21.5784 21.0116L22.1906 20.6643V19.9698L21.5784 19.6225L20.9663 19.9698ZM15.5079 12.2805V11.7844L15.9415 11.5364L16.3751 11.7844V12.2805L15.9415 12.5286L15.5079 12.2805ZM26.3991 35.6956V35.9684L26.6287 36.0924L26.8582 35.9684V35.6956L26.6287 35.5715L26.3991 35.6956Z" fill="url(#paint0_linear)"></path> <path d="M24.5627 39.565V39.3914L24.7157 39.317L24.8687 39.3914V39.565L24.7157 39.6394L24.5627 39.565Z" fill="url(#paint1_linear)"></path> <path d="M9.61616 8.46347V8.68671L9.8202 8.78593L10.0243 8.68671V8.46347L9.8202 8.36426L9.61616 8.46347ZM18.4669 38.1291V38.3524L18.6709 38.4516L18.875 38.3524V38.1291L18.6709 38.0299L18.4669 38.1291ZM17.5996 34.6318V34.2101L17.9822 33.9869L18.3648 34.2101V34.6318L17.9822 34.855L17.5996 34.6318ZM15.3551 29.9438V30.5887L15.9417 30.9111L16.5284 30.5887V29.9438L15.9417 29.6213L15.3551 29.9438ZM12.7789 26.6697V25.9255L13.4421 25.5535L14.1053 25.9255V26.6697L13.4421 27.0417L12.7789 26.6697ZM10.5089 21.7584V22.6266L11.2741 23.0483L12.0393 22.6266V21.7584L11.2741 21.3368L10.5089 21.7584ZM9.10603 17.8642V17.3185L9.59064 17.0457L10.0753 17.3185V17.8642L9.59064 18.1371L9.10603 17.8642ZM8.87646 12.5313V12.9034L9.20804 13.1018L9.53964 12.9034V12.5313L9.20804 12.3329L8.87646 12.5313Z" fill="url(#paint2_linear)"></path> <path d="M3.29023 17.8893V18.1125L3.49427 18.2117L3.69832 18.1125V17.8893L3.49427 17.79L3.29023 17.8893ZM2.98413 21.5327V21.9048L3.31573 22.1032L3.64731 21.9048V21.5327L3.31573 21.3343L2.98413 21.5327ZM3.16269 26.0471V25.5014L3.64732 25.2285L4.13193 25.5014V26.0471L3.64732 26.3199L3.16269 26.0471ZM4.08092 29.0236V29.8421L4.79509 30.239L5.50927 29.8421V29.0236L4.79509 28.6267L4.08092 29.0236ZM6.17244 33.0666V32.3721L6.7846 32.0249L7.39675 32.3721V33.0666L6.7846 33.4139L6.17244 33.0666ZM8.7996 35.547V36.0927L9.28422 36.3656L9.76884 36.0927V35.547L9.28422 35.2742L8.7996 35.547ZM11.6053 38.5014V38.1294L11.9369 37.9309L12.2685 38.1294V38.5014L11.9369 38.6999L11.6053 38.5014ZM14.0539 40.709V40.8826L14.207 40.957L14.36 40.8826V40.709L14.207 40.6346L14.0539 40.709Z" fill="url(#paint3_linear)"></path> <path d="M19.0532 1.34189V1.56513L19.2573 1.66434L19.4613 1.56513V1.34189L19.2573 1.24268L19.0532 1.34189ZM20.15 5.16444V5.5365L20.4816 5.73493L20.8132 5.5365V5.16444L20.4816 4.966L20.15 5.16444ZM21.9609 9.3288V8.63428L22.5731 8.28703L23.1852 8.63428V9.3288L22.5731 9.67606L21.9609 9.3288ZM25.2003 12.1069V13.0246L26.0165 13.4711L26.8327 13.0246V12.1069L26.0165 11.6604L25.2003 12.1069ZM29.0772 16.4972V15.9019L29.6129 15.6042L30.1485 15.9019V16.4972L29.6129 16.7948L29.0772 16.4972ZM32.0105 19.1016V19.3496L32.24 19.4737L32.4696 19.3496V19.1016L32.24 18.9776L32.0105 19.1016Z" fill="url(#paint4_linear)"></path> <path d="M17.2931 0.00271748C17.1146 -0.0220866 16.9615 0.126738 16.936 0.300366C15.4056 6.87344 16.0178 11.8095 24.4349 20.2428C36.1678 32 26.3734 41.0038 21.2466 44.2284C21.1701 44.278 21.0425 44.4268 21.1191 44.6252C21.1956 44.8485 21.4251 44.8485 21.5017 44.8485C33.2346 42.0704 40.7845 28.5274 29.2301 18.4817C22.8535 12.9256 18.0073 9.60189 17.5992 0.374778C17.5992 0.176346 17.4717 0.0275215 17.2931 0.00271748Z" fill="url(#paint5_linear)"></path> <path d="M14.2581 0.997325C14.105 0.898108 13.901 0.972521 13.7989 1.12134C8.8507 8.68658 9.84545 16.6239 14.5641 22.8745C22.9557 33.9619 20.4051 41.1772 18.4411 44.5009C18.3901 44.5753 18.3391 44.7738 18.4921 44.8978C18.6452 45.0466 18.8492 44.9722 18.9257 44.9226C24.6137 40.4331 27.5979 31.3823 19.895 21.3863C15.6864 15.9294 10.9167 11.3654 14.4111 1.41899C14.4621 1.29497 14.4111 1.09654 14.2581 0.997325Z" fill="url(#paint6_linear)"></path> <path d="M10.3811 3.9493C10.2281 3.85008 10.0241 3.92449 9.92204 4.04851C4.13209 12.085 3.57095 20.5901 6.07056 27.2155C9.59044 35.376 16.3241 39.3172 16.7832 44.6004C16.8088 44.7245 16.8598 44.9477 17.1148 44.9477C17.3699 44.9477 17.4464 44.7493 17.4719 44.6501C18.4922 36.5887 13.3909 31.2559 10.8403 26.7911C7.72849 20.8381 5.8155 14.3174 10.5342 4.34616C10.5597 4.22214 10.5087 4.02371 10.3811 3.9493Z" fill="url(#paint7_linear)"></path> <path d="M14.1579 42.5929C14.9485 43.6611 13.8886 44.8184 12.6086 44.4611C6.76875 42.8311 0 38.0992 0 28.0342C0 24.8345 0.765191 21.7092 1.65791 18.9807C1.70893 18.8071 1.88747 18.6831 2.06601 18.7327C2.21905 18.7575 2.34658 18.9063 2.32107 19.08C1.37734 25.3554 1.9895 32.5459 7.77945 37.085C10.6538 39.3314 12.9064 40.9021 14.1579 42.5929Z" fill="url(#paint8_linear)"></path> <path d="M25.7612 9.00926C23.4433 6.48253 22.0296 4.12898 21.3192 2.38796C21.0295 1.67793 21.7043 1.08883 22.3693 1.47076C26.7385 3.98019 30.7851 10.3344 33.1581 16.9466C33.1836 16.9962 33.1836 17.1946 32.9795 17.2442C32.8265 17.2938 32.699 17.1698 32.6734 17.1202C31.2961 14.2677 28.6179 12.1098 25.7612 9.00926Z" fill="url(#paint9_linear)"></path> <path d="M55.3232 14.02H54.405V8.81111H52.3135V7.96777H57.4403V8.81111H55.3487V14.02H55.3232Z" fill="white"></path> <path d="M62.567 14.0199H61.6488V11.5147C61.6488 11.0682 61.5723 10.7457 61.4192 10.5473C61.2917 10.3489 61.0876 10.2745 60.8326 10.2745C60.705 10.2745 60.552 10.2993 60.4245 10.3489C60.2714 10.3985 60.1439 10.4729 60.0164 10.5721C59.8888 10.6713 59.7868 10.7953 59.6848 10.9194C59.6083 11.0434 59.5318 11.1674 59.4807 11.3162V14.0199H58.5625V7.81885H59.4807V10.1008C59.6083 9.952 59.7613 9.82798 59.9399 9.72876C60.2714 9.53033 60.6285 9.43111 61.0111 9.43111C61.2917 9.43111 61.5213 9.48072 61.7253 9.57994C61.9294 9.67915 62.0824 9.82798 62.2099 10.0016C62.3375 10.1752 62.414 10.3737 62.465 10.6217C62.516 10.8449 62.5415 11.1178 62.5415 11.3906V14.0199H62.567Z" fill="white"></path> <path d="M65.934 14.1191C65.6024 14.1191 65.2708 14.0695 64.9903 13.9455C64.7097 13.8215 64.4546 13.6478 64.2506 13.4246C64.0465 13.2014 63.868 12.9533 63.7659 12.6805C63.6639 12.4076 63.5874 12.0852 63.5874 11.7627C63.5874 11.4403 63.6384 11.1426 63.7659 10.8698C63.8935 10.5969 64.0465 10.3489 64.2506 10.1257C64.4546 9.90243 64.7097 9.7288 64.9903 9.62958C65.2708 9.50556 65.5769 9.43115 65.9085 9.43115C66.2401 9.43115 66.5716 9.50556 66.8522 9.62958C67.1328 9.75361 67.3878 9.92723 67.5919 10.1257C67.7959 10.3489 67.949 10.5969 68.0765 10.8698C68.1785 11.1426 68.255 11.4403 68.255 11.7627V11.8868C68.255 11.9612 68.2551 11.986 68.2295 12.0356L68.1785 12.1596H64.5566C64.5821 12.3084 64.6331 12.4324 64.6842 12.5565C64.7607 12.7301 64.8882 12.8789 65.0158 13.0029C65.1433 13.127 65.2963 13.2262 65.4493 13.3006C65.7044 13.3998 66.036 13.4246 66.3421 13.3502C66.4696 13.3254 66.5716 13.2758 66.6737 13.2014C66.7757 13.1518 66.8777 13.0774 66.9542 13.0029C67.0307 12.9285 67.0817 12.8293 67.1328 12.7301L67.1838 12.6061L68 12.8293L67.9235 13.0029C67.847 13.1766 67.7449 13.3254 67.6174 13.4742C67.4899 13.5982 67.3368 13.7223 67.1583 13.8215C66.9797 13.9207 66.7757 13.9951 66.5716 14.0447C66.3931 14.0695 66.1635 14.1191 65.934 14.1191ZM64.5566 11.3659H67.3368C67.3113 11.2418 67.2603 11.1178 67.2093 10.9938C67.1328 10.8202 67.0308 10.6714 66.9032 10.5473C66.7757 10.4233 66.6226 10.3241 66.4696 10.2745C66.138 10.1505 65.7554 10.1505 65.4238 10.2745C65.2453 10.3489 65.1178 10.4481 64.9903 10.5473C64.8627 10.6714 64.7607 10.8202 64.6842 10.969C64.6076 11.1178 64.5821 11.2418 64.5566 11.3659Z" fill="white"></path> <path d="M45.8604 25.9011C45.2227 25.9011 44.6105 25.7523 44.0749 25.4795C43.5393 25.2066 43.0802 24.8346 42.6721 24.4129C42.2895 23.9664 41.9834 23.4703 41.7538 22.8998C41.5498 22.3293 41.4478 21.7589 41.4478 21.1636C41.4478 20.6179 41.5498 20.0722 41.7283 19.5265C41.9324 18.9808 42.2385 18.4847 42.5955 18.063C42.9781 17.6414 43.4628 17.2693 43.9984 17.0213C44.5595 16.7484 45.1972 16.5996 45.9114 16.5996C46.7531 16.5996 47.4928 16.798 48.0794 17.1701C48.6916 17.5422 49.1507 18.0382 49.4312 18.6335L49.5078 18.7824L48.4875 19.4025L48.3855 19.2288C48.258 18.956 48.0794 18.7328 47.9009 18.5591C47.6968 18.3607 47.4928 18.2119 47.2887 18.1127C47.0592 17.9886 46.8296 17.9142 46.6 17.8646C46.345 17.815 46.1154 17.7902 45.8859 17.7902C45.3757 17.7902 44.9166 17.8894 44.534 18.0879C44.1514 18.2863 43.7943 18.5591 43.5393 18.8816C43.2842 19.204 43.0802 19.5761 42.9271 19.9978C42.7996 20.4194 42.7231 20.8411 42.7231 21.2628C42.7231 21.734 42.7996 22.1805 42.9781 22.6022C43.1567 23.0239 43.3862 23.4207 43.6668 23.7432C43.9474 24.0656 44.3045 24.3137 44.6871 24.5121C45.2737 24.785 45.9624 24.8594 46.6766 24.7105C46.9316 24.6609 47.1612 24.5617 47.4162 24.4377C47.6458 24.3137 47.8754 24.14 48.0794 23.9664C48.2835 23.768 48.4365 23.5447 48.564 23.2719L48.6406 23.0983L49.7118 23.644L49.6353 23.7928C49.4823 24.14 49.2527 24.4625 48.9721 24.7353C48.6916 25.0082 48.3855 25.2066 48.0539 25.4051C47.7223 25.5787 47.3652 25.7275 46.9826 25.8267C46.6 25.8515 46.2174 25.9011 45.8604 25.9011Z" fill="white"></path> <path d="M53.8693 25.9506C53.3591 25.9506 52.9 25.8514 52.4664 25.6778C52.0328 25.4793 51.6757 25.2313 51.3696 24.9088C51.0636 24.5864 50.834 24.2143 50.6555 23.7927C50.4769 23.371 50.4004 22.9245 50.4004 22.4532C50.4004 21.982 50.4769 21.5107 50.6555 21.089C50.834 20.6673 51.0891 20.2953 51.3696 19.9728C51.6757 19.6504 52.0583 19.3775 52.4664 19.2039C52.9 19.0055 53.3591 18.9062 53.8693 18.9062C54.3794 18.9062 54.8385 19.0055 55.2721 19.2039C55.7057 19.4023 56.0628 19.6504 56.3689 19.9728C56.675 20.2953 56.93 20.6673 57.0831 21.089C57.2616 21.5107 57.3636 21.9572 57.3636 22.4532C57.3636 22.9245 57.2871 23.371 57.1086 23.7927C56.93 24.2143 56.7005 24.5864 56.3689 24.9088C56.0628 25.2313 55.7057 25.4793 55.2721 25.6778C54.864 25.8514 54.3794 25.9506 53.8693 25.9506ZM53.8693 19.9976C53.5632 19.9976 53.2826 20.072 53.0276 20.1961C52.747 20.3201 52.5174 20.4937 52.3134 20.7169C52.1093 20.9402 51.9563 21.213 51.8288 21.5107C51.7012 21.8083 51.6502 22.1308 51.6502 22.4532C51.6502 22.8005 51.7012 23.1229 51.8288 23.3958C51.9563 23.6686 52.1093 23.9415 52.3134 24.1647C52.5174 24.3632 52.747 24.5368 53.0276 24.6608C53.5632 24.9088 54.2263 24.9088 54.7365 24.6608C55.017 24.5368 55.2466 24.3632 55.4507 24.1399C55.6547 23.9167 55.8077 23.6686 55.9353 23.371C56.0628 23.0733 56.1138 22.7509 56.1138 22.4284C56.1138 22.106 56.0628 21.7835 55.9353 21.4859C55.8077 21.1882 55.6547 20.9154 55.4507 20.7169C55.2466 20.4937 55.017 20.3201 54.7365 20.1961C54.4559 20.072 54.1753 19.9976 53.8693 19.9976Z" fill="white"></path> <path d="M68.6885 25.8265H67.4387V22.0315C67.4387 21.3121 67.3366 20.7913 67.1071 20.4688C66.903 20.1712 66.597 20.0223 66.1634 20.0223C65.9338 20.0223 65.7043 20.0719 65.5002 20.1464C65.2962 20.2208 65.1176 20.3448 64.939 20.4936C64.7605 20.6424 64.6075 20.8409 64.4799 21.0393C64.3524 21.2377 64.2504 21.461 64.1739 21.709V25.8017H62.924V22.0315C62.924 21.3121 62.822 20.7665 62.5925 20.4688C62.3884 20.1712 62.0823 20.0223 61.6487 20.0223C61.1896 20.0223 60.807 20.1712 60.4244 20.4936C60.0673 20.7913 59.8123 21.2129 59.6592 21.7338V25.8513H58.4094V19.0054H59.5827V20.0223C59.8123 19.7495 60.0673 19.5263 60.3479 19.3278C60.807 19.0302 61.3427 18.8813 61.9293 18.8813C62.5414 18.8813 63.0261 19.055 63.4087 19.4022C63.6637 19.6255 63.8678 19.9231 63.9698 20.2704C64.6075 19.3526 65.4237 18.9062 66.4694 18.9062C66.8775 18.9062 67.2091 18.9806 67.5152 19.1294C67.7957 19.2782 68.0508 19.5014 68.2039 19.7743C68.3824 20.0223 68.51 20.3448 68.561 20.7168C68.6375 21.0641 68.6885 21.461 68.6885 21.8826V25.8265Z" fill="white"></path> <path d="M80.4214 25.8265H79.1716V22.0315C79.1716 21.3121 79.0696 20.7913 78.84 20.4688C78.636 20.1712 78.3299 20.0223 77.8963 20.0223C77.6667 20.0223 77.4372 20.0719 77.2331 20.1464C77.0291 20.2208 76.8505 20.3448 76.672 20.4936C76.4934 20.6424 76.3404 20.8409 76.2129 21.0393C76.0853 21.2377 75.9833 21.461 75.9068 21.709V25.8017H74.657V22.0315C74.657 21.3121 74.5549 20.7665 74.3254 20.4688C74.1213 20.1712 73.8152 20.0223 73.3816 20.0223C72.9225 20.0223 72.5399 20.1712 72.1573 20.4936C71.8003 20.7913 71.5452 21.2129 71.3922 21.7338V25.8513H70.1423V19.0054H71.3156V20.0223C71.5452 19.7495 71.8002 19.5263 72.0808 19.3278C72.5399 19.0302 73.0756 18.8813 73.6622 18.8813C74.2744 18.8813 74.759 19.055 75.1416 19.4022C75.3966 19.6255 75.6007 19.9231 75.7027 20.2704C76.3404 19.3526 77.1566 18.9062 78.2023 18.9062C78.6104 18.9062 78.942 18.9806 79.2481 19.1294C79.5287 19.2782 79.7838 19.5014 79.9368 19.7743C80.1153 20.0223 80.2429 20.3448 80.2939 20.7168C80.3704 21.0641 80.4214 21.461 80.4214 21.8826V25.8265Z" fill="white"></path> <path d="M84.8849 25.9506C84.3748 25.9506 83.9157 25.8514 83.4821 25.6778C83.0484 25.4793 82.6913 25.2313 82.3853 24.9088C82.0792 24.5864 81.8496 24.2143 81.6711 23.7927C81.4925 23.371 81.416 22.9245 81.416 22.4532C81.416 21.982 81.4925 21.5107 81.6711 21.089C81.8496 20.6673 82.1047 20.2953 82.3853 19.9728C82.6913 19.6504 83.074 19.3775 83.4821 19.2039C83.9157 19.0055 84.3748 18.9062 84.8849 18.9062C85.395 18.9062 85.8541 19.0055 86.2878 19.2039C86.7214 19.4023 87.0784 19.6504 87.3845 19.9728C87.6906 20.2953 87.9457 20.6673 88.0987 21.089C88.2772 21.5107 88.3793 21.9572 88.3793 22.4532C88.3793 22.9245 88.3027 23.371 88.1242 23.7927C87.9457 24.2143 87.7161 24.5864 87.3845 24.9088C87.0784 25.2313 86.7214 25.4793 86.2878 25.6778C85.8797 25.8514 85.395 25.9506 84.8849 25.9506ZM84.8849 19.9976C84.5788 19.9976 84.2982 20.072 84.0432 20.1961C83.7626 20.3201 83.533 20.4937 83.329 20.7169C83.1249 20.9402 82.9719 21.213 82.8444 21.5107C82.7169 21.8083 82.6658 22.1308 82.6658 22.4532C82.6658 22.8005 82.7169 23.1229 82.8444 23.3958C82.9719 23.6686 83.1249 23.9415 83.329 24.1647C83.533 24.3632 83.7626 24.5368 84.0432 24.6608C84.5788 24.9088 85.242 24.9088 85.7521 24.6608C86.0327 24.5368 86.2622 24.3632 86.4663 24.1399C86.6703 23.9167 86.8234 23.6686 86.9509 23.371C87.0784 23.0733 87.1294 22.7509 87.1294 22.4284C87.1294 22.106 87.0784 21.7835 86.9509 21.4859C86.8234 21.1882 86.6703 20.9154 86.4663 20.7169C86.2622 20.4937 86.0327 20.3201 85.7521 20.1961C85.4715 20.072 85.191 19.9976 84.8849 19.9976Z" fill="white"></path> <path d="M95.4192 25.8265H94.1694V22.0315C94.1694 21.3121 94.0674 20.7665 93.8378 20.4688C93.6337 20.1712 93.3532 20.0223 92.9196 20.0223C92.69 20.0223 92.4604 20.0719 92.2309 20.1464C92.0013 20.2208 91.7718 20.3448 91.5677 20.4936C91.3637 20.6424 91.1851 20.8409 91.0321 21.0393C90.8791 21.2377 90.777 21.461 90.7005 21.6842V25.8017H89.4507V19.0054H90.624V20.0719C90.8536 19.7991 91.1596 19.5511 91.4912 19.3526C92.0268 19.055 92.6135 18.8813 93.2511 18.8813C93.6592 18.8813 93.9908 18.9558 94.2714 19.1046C94.552 19.2534 94.7815 19.4518 94.9601 19.7247C95.1131 19.9727 95.2406 20.2952 95.3171 20.6672C95.3937 21.0145 95.4192 21.4362 95.4192 21.8578V25.8265Z" fill="white"></path> <path d="M99.2964 25.9505C98.7607 25.9505 98.2251 25.8513 97.7149 25.7025C97.2048 25.5288 96.7457 25.2808 96.3631 24.9335L96.2356 24.8343L96.8477 23.9662L97.0008 24.0902C97.3579 24.363 97.7149 24.5863 98.0975 24.7351C98.4546 24.8839 98.8627 24.9335 99.2708 24.9335C99.7555 24.9335 100.164 24.8343 100.444 24.6607C100.725 24.4871 100.852 24.239 100.852 23.9166C100.852 23.7677 100.827 23.6685 100.75 23.5693C100.674 23.4701 100.572 23.3709 100.419 23.2965C100.266 23.2221 100.087 23.1476 99.832 23.0732C99.5769 22.9988 99.2963 22.9244 98.9648 22.85C98.5822 22.7508 98.2251 22.6764 97.9445 22.5771C97.6384 22.4779 97.4089 22.3787 97.2048 22.2547C97.0008 22.1307 96.8477 21.957 96.7202 21.7586C96.6182 21.5602 96.5672 21.3121 96.5672 21.0145C96.5672 20.6672 96.6437 20.3448 96.7712 20.0719C96.9243 19.7991 97.1283 19.5759 97.3579 19.4022C97.6129 19.2286 97.8935 19.0798 98.1996 19.0054C98.5312 18.9062 98.8627 18.8813 99.2198 18.8813C99.7555 18.8813 100.24 18.9806 100.674 19.1542C101.107 19.3278 101.464 19.5511 101.745 19.8239L101.872 19.9479L101.209 20.7417L101.056 20.5928C100.827 20.3696 100.546 20.196 100.215 20.0719C99.883 19.9479 99.5514 19.8983 99.1943 19.8983C98.9903 19.8983 98.7862 19.9231 98.6077 19.9727C98.4291 20.0223 98.2761 20.0719 98.1486 20.1464C98.021 20.2208 97.9445 20.32 97.868 20.4688C97.7915 20.5928 97.766 20.7417 97.766 20.9153C97.766 21.0641 97.7915 21.1633 97.8425 21.2377C97.8935 21.3121 97.97 21.3866 98.072 21.461C98.1996 21.5354 98.3526 21.585 98.5312 21.6594C98.7352 21.709 98.9903 21.7834 99.2708 21.833C99.7044 21.9322 100.087 22.0315 100.419 22.1307C100.75 22.2299 101.031 22.3539 101.26 22.5027C101.515 22.6516 101.694 22.8252 101.821 23.0484C101.949 23.2717 102 23.5197 102 23.8422C102 24.4871 101.745 25.0327 101.235 25.4048C100.801 25.7769 100.113 25.9505 99.2964 25.9505Z" fill="white"></path> <path d="M72.1831 38.1295C70.7292 38.1295 69.4794 37.6831 68.4337 36.8149L68.3062 36.7157L68.9693 35.6739L69.1478 35.8476C69.3009 35.9964 69.4794 36.1452 69.6835 36.294C69.8875 36.4429 70.1426 36.5669 70.3977 36.6661C70.6527 36.7653 70.9588 36.8397 71.2649 36.9141C71.571 36.9637 71.877 36.9886 72.2086 36.9886C72.8973 36.9886 73.4329 36.8645 73.79 36.6413C74.1471 36.4181 74.3257 36.0956 74.3257 35.6491C74.3257 35.4259 74.2746 35.2275 74.1726 35.0786C74.0706 34.905 73.9175 34.781 73.739 34.657C73.5094 34.533 73.2544 34.4089 72.9228 34.3097C72.5912 34.2105 72.1831 34.1113 71.7495 34.0121C71.2649 33.9129 70.8313 33.7888 70.4742 33.6648C70.0916 33.5408 69.7855 33.392 69.5049 33.2183C69.2244 33.0199 69.0203 32.7967 68.8928 32.5486C68.7652 32.2758 68.6887 31.9533 68.6887 31.5813C68.6887 31.1596 68.7653 30.7627 68.9438 30.4403C69.1224 30.093 69.3774 29.8202 69.6835 29.597C69.9895 29.3737 70.3467 29.2001 70.7548 29.1009C71.1629 28.9769 71.622 28.9272 72.1066 28.9272C72.7442 28.9272 73.3054 29.0265 73.79 29.2001C74.2746 29.3737 74.7337 29.6466 75.1418 29.969L75.2694 30.0682L74.6062 31.11L74.4277 30.9116C74.1981 30.6635 73.8665 30.4403 73.4839 30.2915C73.0758 30.1426 72.6167 30.0434 72.1066 30.0434C71.3669 30.0434 70.8058 30.1674 70.4742 30.4403C70.1426 30.6883 69.9896 31.0356 69.9896 31.4821C69.9896 31.7053 70.0406 31.9037 70.1171 32.0526C70.1936 32.1766 70.3211 32.3006 70.4997 32.3998C70.6782 32.5238 70.9333 32.623 71.2394 32.6975C71.5455 32.7967 71.928 32.8711 72.3616 32.9703C72.8463 33.0695 73.3054 33.1935 73.688 33.3176C74.0961 33.4416 74.4532 33.6152 74.7337 33.8136C75.0143 34.0121 75.2694 34.2601 75.4224 34.533C75.5754 34.8306 75.652 35.1779 75.652 35.5995C75.652 36.0212 75.5755 36.4181 75.3969 36.7157C75.2184 37.0382 74.9633 37.311 74.6572 37.5094C74.3511 37.7079 73.9941 37.8815 73.5605 37.9807C73.1269 38.0799 72.6677 38.1295 72.1831 38.1295Z" fill="white"></path> <path d="M78.4576 38.1295C78.2536 38.1295 78.0495 38.1046 77.871 38.055C77.6669 38.0054 77.5139 37.9062 77.3609 37.807C77.2078 37.683 77.0803 37.5342 77.0038 37.3605C76.9272 37.1869 76.8762 36.9637 76.8762 36.7404V32.3501H75.958V31.3331H76.8762V29.1504H78.126V31.3083H79.6564V32.3253H78.126V36.4676C78.126 36.6412 78.2026 36.7652 78.3046 36.8396C78.4321 36.9141 78.5596 36.9637 78.7382 36.9637C78.9677 36.9637 79.1463 36.9389 79.3248 36.8644C79.5544 36.7652 79.6309 36.7156 79.6564 36.7156L79.8605 36.5916L80.2176 37.6334L80.0645 37.7078C80.0135 37.7326 79.937 37.7574 79.835 37.807C79.7329 37.8566 79.6309 37.8814 79.4779 37.931C79.3503 37.9806 79.1973 38.0054 79.0188 38.055C78.8147 38.1295 78.6362 38.1295 78.4576 38.1295Z" fill="white"></path> <path d="M83.2272 38.1789C82.8956 38.1789 82.564 38.1293 82.2834 38.0301C82.0029 37.9061 81.7478 37.7573 81.5182 37.5588C81.3142 37.3604 81.1357 37.1372 81.0081 36.8643C80.8806 36.5915 80.8296 36.3186 80.8296 35.9962C80.8296 35.6985 80.9061 35.4009 81.0592 35.128C81.2122 34.88 81.4162 34.6319 81.6968 34.4583C81.9519 34.2847 82.2834 34.1359 82.6405 34.0366C83.2782 33.863 84.0944 33.8382 84.8851 33.9622C85.1402 34.0118 85.3697 34.0615 85.5993 34.1359V33.863C85.5993 33.3421 85.4462 32.9453 85.1657 32.6476C84.8596 32.35 84.4515 32.2011 83.9159 32.2011C83.6098 32.2011 83.2782 32.2508 82.9466 32.3748C82.615 32.4988 82.2579 32.6724 81.9008 32.9205L81.7223 33.0445L81.2377 32.1763L81.3907 32.0771C82.2834 31.5066 83.1507 31.209 83.9924 31.209C84.8851 31.209 85.5738 31.457 86.0839 31.9283C86.594 32.3996 86.8491 33.0693 86.8491 33.9126V36.7899C86.8491 36.9387 86.9001 36.9387 86.9766 36.9387H87.1807V38.0053L87.0276 38.0301C86.8746 38.0549 86.7471 38.0797 86.6706 38.0797C86.4155 38.0797 86.1859 38.0053 86.0329 37.8813C85.8799 37.7325 85.7778 37.5588 85.7778 37.3108V37.2612C85.5228 37.5092 85.2167 37.7076 84.8596 37.8565C84.2984 38.0797 83.7883 38.1789 83.2272 38.1789ZM83.9159 34.8056C83.3547 34.8056 82.8701 34.9296 82.5385 35.1528C82.2069 35.3513 82.0539 35.6241 82.0539 35.9714C82.0539 36.145 82.0794 36.2938 82.1559 36.4426C82.2324 36.5915 82.3344 36.7155 82.4365 36.8395C82.564 36.9387 82.7171 37.0379 82.8701 37.0875C83.0486 37.162 83.2272 37.1868 83.4312 37.1868C83.8648 37.1868 84.2474 37.1123 84.579 36.9635C84.9361 36.8147 85.1912 36.6163 85.3697 36.3682L85.3952 36.3434C85.4463 36.2938 85.4973 36.2194 85.5228 36.1698C85.5483 36.0954 85.5738 36.0458 85.5738 35.9962V35.0784C85.3442 35.004 85.0891 34.9296 84.8341 34.88C84.528 34.8304 84.2219 34.8056 83.9159 34.8056Z" fill="white"></path> <path d="M91.6445 38.1789C91.1344 38.1789 90.6497 38.0797 90.2161 37.9061C89.7825 37.7076 89.4 37.4596 89.0939 37.1372C88.7878 36.8147 88.5327 36.4426 88.3542 36.021C88.1756 35.5993 88.0991 35.1528 88.0991 34.6567C88.0991 34.1855 88.1756 33.739 88.3542 33.3173C88.5327 32.8957 88.7623 32.5236 89.0683 32.2259C89.3744 31.9035 89.757 31.6555 90.1906 31.4818C90.6242 31.3082 91.1089 31.209 91.619 31.209C92.2821 31.209 92.8688 31.3578 93.3534 31.6555C93.838 31.9283 94.2206 32.3252 94.4757 32.8212L94.5777 33.0197L93.3789 33.3917L93.3024 33.2677C93.1239 32.9701 92.8943 32.7468 92.5882 32.5732C92.2822 32.3996 91.9506 32.3252 91.568 32.3252C91.2619 32.3252 90.9558 32.3748 90.7008 32.4988C90.4457 32.6228 90.1906 32.7964 89.9866 32.9949C89.7825 33.1933 89.6295 33.4413 89.502 33.739C89.3999 34.0118 89.3489 34.3343 89.3489 34.6816C89.3489 35.004 89.3999 35.3265 89.5275 35.6241C89.655 35.9218 89.808 36.1698 90.0121 36.393C90.2161 36.5915 90.4457 36.7651 90.7263 36.9139C91.1599 37.1124 91.67 37.1372 92.1546 37.0131C92.3587 36.9635 92.5372 36.8891 92.6903 36.7899C92.8433 36.6907 92.9963 36.5915 93.0984 36.4674C93.2004 36.3682 93.2769 36.2442 93.3279 36.1202L93.3789 35.9466L94.6032 36.2938L94.5267 36.4674C94.4247 36.7155 94.2717 36.9387 94.0931 37.162C93.8891 37.3604 93.685 37.534 93.4044 37.7076C93.1494 37.8565 92.8688 37.9805 92.5372 38.0549C92.2822 38.1293 91.9761 38.1789 91.6445 38.1789Z" fill="white"></path> <path d="M101.821 38.0549H100.419L98.0465 34.88L96.8477 35.9466V38.0549H95.5979V28.7534H96.8477V34.5824L100.317 31.333H101.847L98.9137 34.1359L101.821 38.0549Z" fill="white"></path> <defs> <linearGradient id="paint0_linear" x1="21.0403" y1="12.3969" x2="21.0403" y2="36.1256" gradientUnits="userSpaceOnUse"> <stop stop-color="#67DE69"></stop> <stop offset="1" stop-color="#0047B0"></stop> </linearGradient> <linearGradient id="paint1_linear" x1="21.0403" y1="12.3969" x2="21.0403" y2="36.1256" gradientUnits="userSpaceOnUse"> <stop stop-color="#67DE69"></stop> <stop offset="1" stop-color="#0047B0"></stop> </linearGradient> <linearGradient id="paint2_linear" x1="13.9815" y1="16.8481" x2="13.9815" y2="38.4417" gradientUnits="userSpaceOnUse"> <stop stop-color="#67DE69"></stop> <stop offset="1" stop-color="#0047B0"></stop> </linearGradient> <linearGradient id="paint3_linear" x1="8.58404" y1="24.4956" x2="8.58404" y2="40.9439" gradientUnits="userSpaceOnUse"> <stop stop-color="#67DE69"></stop> <stop offset="1" stop-color="#0047B0"></stop> </linearGradient> <linearGradient id="paint4_linear" x1="25.8051" y1="6.47305" x2="25.8051" y2="19.7953" gradientUnits="userSpaceOnUse"> <stop stop-color="#67DE69"></stop> <stop offset="1" stop-color="#0047B0"></stop> </linearGradient> <linearGradient id="paint5_linear" x1="25.5704" y1="12.7918" x2="25.5704" y2="44.9621" gradientUnits="userSpaceOnUse"> <stop stop-color="#67DE69"></stop> <stop offset="1" stop-color="#0047B0"></stop> </linearGradient> <linearGradient id="paint6_linear" x1="17.5843" y1="13.1644" x2="17.5843" y2="44.1693" gradientUnits="userSpaceOnUse"> <stop stop-color="#67DE69"></stop> <stop offset="1" stop-color="#0047B0"></stop> </linearGradient> <linearGradient id="paint7_linear" x1="10.7974" y1="15.0827" x2="10.7974" y2="43.4775" gradientUnits="userSpaceOnUse"> <stop stop-color="#67DE69"></stop> <stop offset="1" stop-color="#0047B0"></stop> </linearGradient> <linearGradient id="paint8_linear" x1="7.61727" y1="26.1432" x2="7.61727" y2="44.9977" gradientUnits="userSpaceOnUse"> <stop stop-color="#67DE69"></stop> <stop offset="1" stop-color="#0047B0"></stop> </linearGradient> <linearGradient id="paint9_linear" x1="26.8852" y1="5.33935" x2="27.2142" y2="17.4101" gradientUnits="userSpaceOnUse"> <stop stop-color="#67DE69"></stop> <stop offset="1" stop-color="#0047B0"></stop> </linearGradient> </defs> </svg> 